<svg xmlns="http://www.w3.org/2000/svg" viewBox="0 0 1024 1024">
  <defs>
    <linearGradient id="bg" x1="128" y1="96" x2="896" y2="928" gradientUnits="userSpaceOnUse">
      <stop offset="0" stop-color="#0c131b"/>
      <stop offset="0.55" stop-color="#142433"/>
      <stop offset="1" stop-color="#271609"/>
    </linearGradient>
    <linearGradient id="spark" x1="170" y1="180" x2="850" y2="840" gradientUnits="userSpaceOnUse">
      <stop offset="0" stop-color="#00ddff"/>
      <stop offset="0.52" stop-color="#f97316"/>
      <stop offset="1" stop-color="#00ff99"/>
    </linearGradient>
    <filter id="glow" x="-30%" y="-30%" width="160%" height="160%">
      <feGaussianBlur stdDeviation="14" result="blur"/>
      <feColorMatrix in="blur" type="matrix" values="0 0 0 0 0  0 0 0 0 0.75  0 0 0 0 1  0 0 0 0.58 0"/>
      <feBlend in="SourceGraphic"/>
    </filter>
  </defs>
  <rect x="64" y="64" width="896" height="896" rx="184" fill="url(#bg)"/>
  <path d="M512 512 238 238M512 512l274-274M512 512 238 786M512 512l274 274" stroke="url(#spark)" stroke-width="42" stroke-linecap="round" opacity="0.9"/>
  <g fill="#111923" stroke="#00ddff" stroke-width="28" filter="url(#glow)">
    <circle cx="238" cy="238" r="72"/>
    <circle cx="786" cy="238" r="72"/>
    <circle cx="238" cy="786" r="72"/>
    <circle cx="786" cy="786" r="72"/>
  </g>
  <g stroke="#f97316" stroke-width="18" stroke-linecap="round" opacity="0.95">
    <path d="M178 238h120M238 178v120M726 238h120M786 178v120"/>
    <path d="M178 786h120M238 726v120M726 786h120M786 726v120"/>
  </g>
  <rect x="362" y="362" width="300" height="300" rx="58" fill="#101820" stroke="#f97316" stroke-width="26"/>
  <path d="M428 456h168M428 512h168M512 424v176" stroke="#00ddff" stroke-width="30" stroke-linecap="round"/>
  <circle cx="430" cy="454" r="18" fill="#00ff99"/>
  <circle cx="594" cy="594" r="18" fill="#00ddff"/>
  <text x="512" y="745" text-anchor="middle" font-family="Arial, Helvetica, sans-serif" font-size="122" font-weight="800" letter-spacing="10" fill="#f8fafc">ROX</text>
  <text x="512" y="848" text-anchor="middle" font-family="Arial, Helvetica, sans-serif" font-size="66" font-weight="700" letter-spacing="13" fill="#f97316">LABS</text>
</svg>
